# Blender v3.2.2 OBJ File: 'RoofAccess.blend'
# www.blender.org
mtllib RoofAccess.mtl
o Cube
v -1.500000 2.000000 -1.000000
v -1.400000 0.000000 0.900000
v -1.500000 0.000000 -1.000000
v -1.400000 1.900000 0.900000
v 1.500000 2.000000 -1.000000
v 1.500000 0.000000 -1.000000
v -1.500000 2.000000 1.000000
v -1.400000 0.000000 -0.900000
v -1.500000 0.000000 1.000000
v -1.400000 1.900000 -0.900000
v 1.500000 2.000000 1.000000
v 1.500000 0.000000 1.000000
v -1.500000 1.900000 -0.900000
v -1.500000 1.900000 0.900000
v -1.500000 0.000000 0.900000
v -1.500000 0.000000 -0.900000
vt 0.625000 0.500000
vt 0.875000 0.500000
vt 0.875000 0.750000
vt 0.625000 0.750000
vt 0.375000 0.750000
vt 0.625000 1.000000
vt 0.375000 1.000000
vt 0.375000 0.000000
vt 0.625000 0.000000
vt 0.625000 0.250000
vt 0.375000 0.250000
vt 0.362500 0.500000
vt 0.375000 0.500000
vt 0.125000 0.750000
vt 0.125000 0.500000
vt 0.137500 0.500000
vt 0.137500 0.508333
vt 0.362500 0.508333
vt 0.375000 0.487500
vt 0.612500 0.487500
vt 0.612500 0.262500
vt 0.375000 0.262500
vt 0.625000 0.125000
vt 0.625000 0.000000
vt 0.375000 0.000000
vt 0.375000 0.125000
vt 0.375000 0.625000
vt 0.375000 0.750000
vt 0.625000 0.750000
vt 0.625000 0.625000
vt 0.625000 1.000000
vt 0.375000 1.000000
vt 0.875000 0.750000
vt 0.875000 0.625000
vn 0.0000 1.0000 0.0000
vn 1.0000 0.0000 0.0000
vn 0.0000 0.0000 1.0000
vn 0.0000 -1.0000 0.0000
vn -0.0000 0.0000 -1.0000
vn -1.0000 0.0000 0.0000
usemtl None
s off
f 1/1/1 7/2/1 11/3/1 5/4/1
f 6/5/2 5/4/2 11/6/2 12/7/2
f 12/8/3 11/9/3 7/10/3 9/11/3
f 16/12/4 3/13/4 6/5/4 12/14/4 9/15/4 15/16/4 2/17/4 8/18/4
f 3/13/5 1/1/5 5/4/5 6/5/5
f 9/11/6 7/10/6 1/1/6 3/13/6 16/19/6 13/20/6 14/21/6 15/22/6
f 14/23/5 4/24/5 2/25/5 15/26/5
f 16/27/3 8/28/3 10/29/3 13/30/3
f 4/31/6 10/29/6 8/28/6 2/32/6
f 10/29/4 4/33/4 14/34/4 13/30/4
